Coordinates
version=1
nRows=9
nColumns=24
inDegrees=yes

Units are S.I. units (second, meters, Newtons, ...)
Angles are in degrees.

endheader
time	pelvis_tilt	pelvis_list	pelvis_rotation	pelvis_tx	pelvis_ty	pelvis_tz	hip_flexion_r	hip_adduction_r	hip_rotation_r	knee_angle_r	ankle_angle_r	subtalar_angle_r	mtp_angle_r	hip_flexion_l	hip_adduction_l	hip_rotation_l	knee_angle_l	ankle_angle_l	subtalar_angle_l	mtp_angle_l	lumbar_extension	lumbar_bending	lumbar_rotation
      5.39000000	     64.37746398	     -4.82682334	      7.04899082	      0.83424902	      1.08838193	     -0.24565247	      1.39316259	     -7.87780183	     -4.41640431	    -62.81693192	     11.78366738	     24.79467892	      0.00000000	      3.98298807	     -6.55375393	      3.67594518	    -63.51004989	      0.16029998	     -2.23277630	      0.00000000	      0.00000000	      0.00000000	      0.00000000
      5.40000000	     64.38212496	     -4.82035507	      7.04962403	      0.83424639	      1.08837678	     -0.24566084	      1.39146266	     -7.86880526	     -4.45685432	    -62.76534355	     11.77147777	     24.86331144	      0.00000000	      3.97746186	     -6.54725661	      3.67708496	    -63.50926045	      0.16376491	     -2.23731155	      0.00000000	      0.00000000	      0.00000000	      0.00000000
      5.41000000	     64.38573463	     -4.81457436	      7.05182946	      0.83424372	      1.08837677	     -0.24566870	      1.38888061	     -7.85870826	     -4.49576920	    -62.71249743	     11.75540019	     24.94560831	      0.00000000	      3.97374195	     -6.54203952	      3.67982945	    -63.50907983	      0.16790626	     -2.24006912	      0.00000000	      0.00000000	      0.00000000	      0.00000000
      5.42000000	     64.38869068	     -4.81077173	      7.05603958	      0.83423739	      1.08838202	     -0.24567607	      1.38513180	     -7.84866678	     -4.53419435	    -62.66035836	     11.73869828	     25.02668010	      0.00000000	      3.97087896	     -6.53862446	      3.68401032	    -63.50915404	      0.17193463	     -2.24159664	      0.00000000	      0.00000000	      0.00000000	      0.00000000
      5.43000000	     64.39182445	     -4.80888559	      7.06183893	      0.83422787	      1.08838851	     -0.24568282	      1.38027374	     -7.83902577	     -4.57351486	    -62.61042088	     11.72437725	     25.09315845	      0.00000000	      3.96811891	     -6.53694592	      3.68893694	    -63.50902855	      0.17501044	     -2.24257263	      0.00000000	      0.00000000	      0.00000000	      0.00000000
      5.44000000	     64.39592175	     -4.80782156	      7.06831985	      0.83421801	      1.08839209	     -0.24569007	      1.37465559	     -7.82939113	     -4.61471583	    -62.56331774	     11.71437002	     25.13636117	      0.00000000	      3.96497102	     -6.53645591	      3.69366378	    -63.50829530	      0.17655532	     -2.24357975	      0.00000000	      0.00000000	      0.00000000	      0.00000000
      5.45000000	     64.40115674	     -4.80640054	      7.07453380	      0.83420996	      1.08839154	     -0.24569677	      1.36869655	     -7.81934101	     -4.65773126	    -62.51892715	     11.70926449	     25.15373306	      0.00000000	      3.96107070	     -6.53637769	      3.69741570	    -63.50674824	      0.17642692	     -2.24488666	      0.00000000	      0.00000000	      0.00000000	      0.00000000
      5.46000000	     64.40710124	     -4.80408666	      7.07981957	      0.83420245	      1.08839035	     -0.24569998	      1.36288076	     -7.80897895	     -4.70129350	    -62.47678069	     11.70859188	     25.14836673	      0.00000000	      3.95612500	     -6.53591017	      3.69987400	    -63.50437411	      0.17495892	     -2.24637658	      0.00000000	      0.00000000	      0.00000000	      0.00000000
      5.47000000	     64.41321318	     -4.80102561	      7.08393963	      0.83419314	      1.08839183	     -0.24569935	      1.35778984	     -7.79884565	     -4.74329513	    -62.43657003	     11.71145310	     25.12705865	      0.00000000	      3.95010662	     -6.53429572	      3.70117946	    -63.50117673	      0.17289202	     -2.24767411	      0.00000000	      0.00000000	      0.00000000	      0.00000000
